<svg xmlns="http://www.w3.org/2000/svg" xmlns:xlink="http://www.w3.org/1999/xlink" width="256" zoomAndPan="magnify" viewBox="0 0 192 191.999996" height="256" preserveAspectRatio="xMidYMid meet" version="1.0"><defs><clipPath id="d364ff0acd"><path d="M 45.238281 49.976562 L 137.488281 49.976562 L 137.488281 142.226562 L 45.238281 142.226562 Z M 45.238281 49.976562 " clip-rule="nonzero"/></clipPath></defs><g clip-path="url(#d364ff0acd)"><path fill="#000000" d="M 91.363281 49.976562 C 65.9375 49.976562 45.238281 70.675781 45.238281 96.101562 C 45.238281 121.527344 65.9375 142.226562 91.363281 142.226562 C 116.789062 142.226562 137.488281 121.527344 137.488281 96.101562 C 137.488281 70.675781 116.789062 49.976562 91.363281 49.976562 Z M 134.375 94.566406 L 131.300781 94.566406 C 131.203125 92.066406 130.878906 89.625 130.339844 87.242188 L 133.320312 86.453125 C 133.914062 89.070312 134.28125 91.777344 134.375 94.566406 Z M 132.53125 83.476562 L 129.550781 84.265625 C 128.820312 81.898438 127.859375 79.613281 126.707031 77.460938 L 129.378906 75.921875 C 130.648438 78.324219 131.703125 80.84375 132.53125 83.476562 Z M 122.84375 66.792969 C 124.710938 68.792969 126.382812 70.964844 127.824219 73.269531 L 125.152344 74.808594 C 123.824219 72.714844 122.324219 70.773438 120.652344 68.964844 Z M 103.992188 54.9375 C 106.625 55.742188 109.140625 56.800781 111.542969 58.089844 L 110.007812 60.757812 C 107.855469 59.605469 105.566406 58.664062 103.203125 57.914062 Z M 113.101562 89.585938 L 119.617188 96.101562 L 113.101562 102.617188 L 106.585938 96.101562 Z M 92.902344 53.089844 C 95.6875 53.1875 98.398438 53.550781 101.011719 54.148438 L 100.222656 57.128906 C 97.859375 56.589844 95.417969 56.261719 92.902344 56.167969 Z M 108.757812 85.226562 L 102.242188 91.738281 L 91.363281 80.882812 L 80.488281 91.757812 L 73.972656 85.242188 L 91.363281 67.851562 Z M 97.878906 96.101562 L 91.363281 102.617188 L 84.847656 96.101562 L 91.363281 89.585938 Z M 76.144531 96.101562 L 69.628906 102.617188 L 63.09375 96.101562 L 69.609375 89.585938 Z M 89.828125 53.089844 L 89.828125 56.167969 C 87.328125 56.261719 84.886719 56.589844 82.503906 57.128906 L 81.714844 54.148438 C 84.332031 53.550781 87.039062 53.1875 89.828125 53.089844 Z M 78.738281 54.9375 L 79.527344 57.914062 C 77.160156 58.644531 74.875 59.605469 72.722656 60.757812 L 71.183594 58.089844 C 73.585938 56.820312 76.105469 55.761719 78.738281 54.9375 Z M 68.53125 59.625 L 70.070312 62.296875 C 67.976562 63.621094 66.035156 65.121094 64.226562 66.792969 L 62.054688 64.621094 C 64.035156 62.757812 66.207031 61.085938 68.53125 59.625 Z M 53.351562 75.921875 L 56.019531 77.460938 C 54.867188 79.613281 53.925781 81.898438 53.175781 84.265625 L 50.199219 83.476562 C 51.023438 80.84375 52.082031 78.324219 53.351562 75.921875 Z M 49.410156 86.453125 L 52.390625 87.242188 C 51.851562 89.605469 51.523438 92.046875 51.429688 94.566406 L 48.351562 94.566406 C 48.449219 91.777344 48.8125 89.070312 49.410156 86.453125 Z M 48.351562 97.640625 L 51.429688 97.640625 C 51.523438 100.136719 51.851562 102.578125 52.390625 104.960938 L 49.410156 105.75 C 48.8125 103.136719 48.449219 100.425781 48.351562 97.640625 Z M 50.199219 108.730469 L 53.175781 107.941406 C 53.90625 110.304688 54.867188 112.59375 56.019531 114.746094 L 53.351562 116.28125 C 52.082031 113.878906 51.023438 111.363281 50.199219 108.730469 Z M 59.882812 125.410156 C 58.019531 123.414062 56.347656 121.242188 54.90625 118.933594 L 57.578125 117.398438 C 58.902344 119.492188 60.402344 121.433594 62.074219 123.238281 Z M 57.558594 74.808594 L 54.886719 73.269531 C 56.347656 70.945312 58.019531 68.792969 59.863281 66.792969 L 62.035156 68.964844 C 60.382812 70.773438 58.886719 72.714844 57.558594 74.808594 Z M 68.53125 132.578125 C 66.207031 131.121094 64.054688 129.445312 62.054688 127.601562 L 64.226562 125.429688 C 66.035156 127.101562 67.996094 128.601562 70.070312 129.925781 Z M 78.738281 137.269531 C 76.105469 136.460938 73.585938 135.40625 71.183594 134.117188 L 72.722656 131.445312 C 74.875 132.597656 77.160156 133.539062 79.527344 134.289062 Z M 89.828125 139.113281 C 87.039062 139.019531 84.332031 138.652344 81.714844 138.058594 L 82.503906 135.078125 C 84.867188 135.617188 87.308594 135.941406 89.828125 136.039062 Z M 73.972656 106.980469 L 80.488281 100.464844 L 91.363281 111.34375 L 102.242188 100.464844 L 108.757812 106.980469 L 91.363281 124.375 Z M 92.902344 139.113281 L 92.902344 136.039062 C 95.402344 135.941406 97.839844 135.617188 100.222656 135.078125 L 101.011719 138.058594 C 98.398438 138.652344 95.6875 139.019531 92.902344 139.113281 Z M 103.992188 137.269531 L 103.203125 134.289062 C 105.566406 133.558594 107.855469 132.597656 110.007812 131.445312 L 111.542969 134.117188 C 109.140625 135.386719 106.625 136.441406 103.992188 137.269531 Z M 114.195312 132.578125 L 112.660156 129.910156 C 114.753906 128.582031 116.695312 127.082031 118.5 125.410156 L 120.671875 127.582031 C 118.695312 129.445312 116.523438 131.121094 114.195312 132.578125 Z M 118.5 66.792969 C 116.695312 65.121094 114.734375 63.621094 112.660156 62.296875 L 114.195312 59.625 C 116.523438 61.085938 118.675781 62.757812 120.671875 64.601562 Z M 122.84375 125.410156 L 120.671875 123.238281 C 122.34375 121.433594 123.84375 119.472656 125.171875 117.398438 L 127.839844 118.933594 C 126.382812 121.261719 124.710938 123.433594 122.84375 125.410156 Z M 129.378906 116.28125 L 126.707031 114.746094 C 127.859375 112.59375 128.800781 110.304688 129.550781 107.941406 L 132.53125 108.730469 C 131.703125 111.363281 130.648438 113.878906 129.378906 116.28125 Z M 133.320312 105.75 L 130.339844 104.960938 C 130.878906 102.597656 131.203125 100.15625 131.300781 97.640625 L 134.375 97.640625 C 134.28125 100.425781 133.914062 103.136719 133.320312 105.75 Z M 133.320312 105.75 " fill-opacity="1" fill-rule="nonzero"/></g></svg>