<svg xmlns="http://www.w3.org/2000/svg" xmlns:xlink="http://www.w3.org/1999/xlink" width="256" zoomAndPan="magnify" viewBox="0 0 192 191.999996" height="256" preserveAspectRatio="xMidYMid meet" version="1.0"><defs><clipPath id="b7a2d26fee"><path d="M 47.09375 51.933594 L 135.59375 51.933594 L 135.59375 140.433594 L 47.09375 140.433594 Z M 47.09375 51.933594 " clip-rule="nonzero"/></clipPath></defs><path fill="#000000" d="M 76.59375 87.667969 L 76.59375 104.703125 L 91.34375 113.222656 L 106.09375 104.703125 L 106.09375 87.667969 L 91.34375 79.148438 Z M 76.59375 87.667969 " fill-opacity="1" fill-rule="nonzero"/><g clip-path="url(#b7a2d26fee)"><path fill="#000000" d="M 91.34375 51.933594 C 66.949219 51.933594 47.09375 71.792969 47.09375 96.183594 C 47.09375 120.578125 66.949219 140.433594 91.34375 140.433594 C 115.738281 140.433594 135.59375 120.578125 135.59375 96.183594 C 135.59375 71.792969 115.738281 51.933594 91.34375 51.933594 Z M 132.605469 94.710938 L 129.65625 94.710938 C 129.566406 92.3125 129.25 89.972656 128.734375 87.683594 L 131.59375 86.929688 C 132.164062 89.4375 132.515625 92.035156 132.605469 94.710938 Z M 130.835938 84.070312 L 127.980469 84.828125 C 127.277344 82.558594 126.355469 80.367188 125.25 78.300781 L 127.8125 76.824219 C 129.03125 79.128906 130.042969 81.546875 130.835938 84.070312 Z M 121.542969 68.066406 C 123.332031 69.984375 124.9375 72.070312 126.320312 74.28125 L 123.757812 75.757812 C 122.484375 73.746094 121.046875 71.882812 119.441406 70.152344 Z M 103.457031 56.691406 C 105.984375 57.464844 108.398438 58.480469 110.703125 59.714844 L 109.226562 62.277344 C 107.164062 61.171875 104.96875 60.269531 102.699219 59.550781 Z M 92.820312 54.921875 C 95.492188 55.015625 98.089844 55.363281 100.597656 55.9375 L 99.84375 58.792969 C 97.574219 58.277344 95.234375 57.964844 92.820312 57.871094 Z M 89.867188 54.921875 L 89.867188 57.871094 C 87.472656 57.964844 85.128906 58.277344 82.84375 58.792969 L 82.089844 55.9375 C 84.59375 55.363281 87.195312 55.015625 89.867188 54.921875 Z M 79.230469 56.691406 L 79.984375 59.550781 C 77.71875 60.25 75.523438 61.171875 73.460938 62.277344 L 71.984375 59.714844 C 74.289062 58.5 76.703125 57.484375 79.230469 56.691406 Z M 69.441406 61.191406 L 70.914062 63.753906 C 68.90625 65.027344 67.042969 66.464844 65.308594 68.066406 L 63.226562 65.984375 C 65.125 64.195312 67.207031 62.589844 69.441406 61.191406 Z M 54.875 76.824219 L 57.4375 78.300781 C 56.332031 80.367188 55.425781 82.558594 54.707031 84.828125 L 51.851562 84.070312 C 52.644531 81.546875 53.65625 79.128906 54.875 76.824219 Z M 51.09375 86.929688 L 53.953125 87.683594 C 53.4375 89.953125 53.121094 92.292969 53.03125 94.710938 L 50.082031 94.710938 C 50.171875 92.035156 50.523438 89.4375 51.09375 86.929688 Z M 50.082031 97.660156 L 53.03125 97.660156 C 53.121094 100.058594 53.4375 102.398438 53.953125 104.683594 L 51.09375 105.441406 C 50.523438 102.933594 50.171875 100.332031 50.082031 97.660156 Z M 51.851562 108.296875 L 54.707031 107.542969 C 55.410156 109.808594 56.332031 112.003906 57.4375 114.070312 L 54.875 115.542969 C 53.65625 113.238281 52.644531 110.824219 51.851562 108.296875 Z M 61.144531 124.300781 C 59.355469 122.382812 57.75 120.300781 56.367188 118.089844 L 58.929688 116.613281 C 60.203125 118.625 61.640625 120.484375 63.246094 122.21875 Z M 58.910156 75.757812 L 56.347656 74.28125 C 57.75 72.050781 59.355469 69.984375 61.125 68.066406 L 63.207031 70.152344 C 61.621094 71.882812 60.183594 73.746094 58.910156 75.757812 Z M 69.441406 131.179688 C 67.207031 129.777344 65.144531 128.175781 63.226562 126.402344 L 65.308594 124.320312 C 67.042969 125.925781 68.921875 127.363281 70.914062 128.636719 Z M 79.230469 135.679688 C 76.703125 134.902344 74.289062 133.890625 71.984375 132.652344 L 73.460938 130.089844 C 75.523438 131.199219 77.71875 132.101562 79.984375 132.820312 Z M 89.867188 137.449219 C 87.195312 137.355469 84.59375 137.003906 82.089844 136.433594 L 82.84375 133.574219 C 85.113281 134.09375 87.453125 134.40625 89.867188 134.496094 Z M 69.21875 108.960938 L 69.21875 83.40625 L 91.34375 70.628906 L 113.46875 83.40625 L 113.46875 108.960938 L 91.34375 121.738281 Z M 92.820312 137.449219 L 92.820312 134.496094 C 95.214844 134.40625 97.558594 134.09375 99.84375 133.574219 L 100.597656 136.433594 C 98.089844 137.003906 95.492188 137.355469 92.820312 137.449219 Z M 103.457031 135.679688 L 102.699219 132.820312 C 104.96875 132.121094 107.164062 131.199219 109.226562 130.089844 L 110.703125 132.652344 C 108.398438 133.871094 105.984375 134.886719 103.457031 135.679688 Z M 113.246094 131.179688 L 111.773438 128.617188 C 113.78125 127.34375 115.644531 125.90625 117.378906 124.300781 L 119.460938 126.386719 C 117.5625 128.175781 115.476562 129.777344 113.246094 131.179688 Z M 117.378906 68.066406 C 115.644531 66.464844 113.761719 65.027344 111.773438 63.753906 L 113.246094 61.191406 C 115.476562 62.589844 117.542969 64.195312 119.460938 65.964844 Z M 121.542969 124.300781 L 119.460938 122.21875 C 121.066406 120.484375 122.503906 118.605469 123.773438 116.613281 L 126.339844 118.089844 C 124.9375 120.320312 123.332031 122.402344 121.542969 124.300781 Z M 127.8125 115.542969 L 125.25 114.070312 C 126.355469 112.003906 127.261719 109.808594 127.980469 107.542969 L 130.835938 108.296875 C 130.042969 110.824219 129.03125 113.238281 127.8125 115.542969 Z M 131.59375 105.441406 L 128.734375 104.683594 C 129.25 102.417969 129.566406 100.074219 129.65625 97.660156 L 132.605469 97.660156 C 132.515625 100.332031 132.164062 102.933594 131.59375 105.441406 Z M 131.59375 105.441406 " fill-opacity="1" fill-rule="nonzero"/></g></svg>