<svg xmlns="http://www.w3.org/2000/svg" xmlns:xlink="http://www.w3.org/1999/xlink" width="256" zoomAndPan="magnify" viewBox="0 0 192 191.999996" height="256" preserveAspectRatio="xMidYMid meet" version="1.0"><defs><clipPath id="bf29e3ac5c"><path d="M 47.710938 47.710938 L 144.460938 47.710938 L 144.460938 144.460938 L 47.710938 144.460938 Z M 47.710938 47.710938 " clip-rule="nonzero"/></clipPath></defs><g clip-path="url(#bf29e3ac5c)"><path fill="#040606" d="M 138.144531 104.527344 L 135.664062 103.859375 C 135.3125 105.671875 134.832031 107.4375 134.246094 109.152344 L 136.71875 109.8125 C 136.101562 111.640625 135.363281 113.410156 134.515625 115.121094 L 132.308594 113.847656 C 131.5 115.488281 130.585938 117.074219 129.570312 118.585938 L 131.773438 119.859375 C 130.707031 121.453125 129.535156 122.96875 128.269531 124.40625 L 126.46875 122.605469 C 125.269531 123.980469 123.976562 125.277344 122.597656 126.476562 L 124.398438 128.277344 C 122.964844 129.542969 121.445312 130.714844 119.851562 131.78125 L 118.578125 129.578125 C 117.066406 130.597656 115.484375 131.507812 113.835938 132.316406 L 115.109375 134.523438 C 113.402344 135.371094 111.632812 136.105469 109.808594 136.726562 L 109.144531 134.253906 C 107.429688 134.84375 105.664062 135.320312 103.855469 135.675781 L 104.519531 138.152344 C 102.660156 138.523438 100.753906 138.769531 98.820312 138.890625 L 98.820312 136.328125 C 97.914062 136.390625 97.003906 136.429688 96.082031 136.429688 C 95.164062 136.429688 94.25 136.390625 93.34375 136.328125 L 93.34375 138.890625 C 91.410156 138.769531 89.507812 138.523438 87.648438 138.152344 L 88.308594 135.675781 C 86.5 135.320312 84.738281 134.84375 83.023438 134.253906 L 82.363281 136.726562 C 80.535156 136.105469 78.765625 135.375 77.054688 134.523438 L 78.328125 132.316406 C 76.683594 131.511719 75.097656 130.597656 73.585938 129.578125 L 72.316406 131.78125 C 70.722656 130.714844 69.207031 129.542969 67.769531 128.277344 L 69.570312 126.480469 C 68.191406 125.277344 66.898438 123.984375 65.695312 122.605469 L 63.894531 124.40625 C 62.632812 122.972656 61.457031 121.453125 60.390625 119.859375 L 62.597656 118.585938 C 61.578125 117.078125 60.664062 115.492188 59.855469 113.847656 L 57.652344 115.121094 C 56.800781 113.414062 56.066406 111.640625 55.449219 109.8125 L 57.917969 109.152344 C 57.332031 107.4375 56.851562 105.675781 56.496094 103.863281 L 54.019531 104.527344 C 53.648438 102.671875 53.402344 100.765625 53.28125 98.832031 L 55.847656 98.832031 C 55.785156 97.921875 55.742188 97.011719 55.742188 96.089844 C 55.742188 95.167969 55.785156 94.257812 55.84375 93.355469 L 53.28125 93.355469 C 53.402344 91.417969 53.648438 89.515625 54.019531 87.65625 L 56.496094 88.320312 C 56.851562 86.511719 57.328125 84.746094 57.914062 83.03125 L 55.449219 82.371094 C 56.066406 80.542969 56.800781 78.773438 57.648438 77.0625 L 59.855469 78.335938 C 60.664062 76.691406 61.574219 75.109375 62.59375 73.597656 L 60.390625 72.324219 C 61.457031 70.730469 62.628906 69.210938 63.894531 67.777344 L 65.695312 69.578125 C 66.894531 68.199219 68.1875 66.90625 69.566406 65.707031 L 67.765625 63.90625 C 69.203125 62.640625 70.71875 61.464844 72.3125 60.398438 L 73.585938 62.601562 C 75.097656 61.585938 76.679688 60.671875 78.328125 59.863281 L 77.050781 57.660156 C 78.761719 56.808594 80.53125 56.074219 82.359375 55.457031 L 83.019531 57.925781 C 84.734375 57.335938 86.5 56.859375 88.308594 56.507812 L 87.648438 54.027344 C 89.503906 53.65625 91.410156 53.410156 93.34375 53.289062 L 93.34375 55.851562 C 94.25 55.792969 95.164062 55.75 96.082031 55.75 C 97.003906 55.75 97.914062 55.792969 98.820312 55.851562 L 98.820312 53.289062 C 100.753906 53.410156 102.660156 53.65625 104.519531 54.027344 L 103.855469 56.507812 C 105.664062 56.859375 107.429688 57.335938 109.144531 57.925781 L 109.804688 55.457031 C 111.632812 56.074219 113.402344 56.808594 115.113281 57.65625 L 113.835938 59.863281 C 115.484375 60.671875 117.066406 61.585938 118.578125 62.601562 L 119.851562 60.398438 C 121.445312 61.464844 122.964844 62.640625 124.398438 63.902344 L 122.597656 65.703125 C 123.976562 66.90625 125.269531 68.199219 126.46875 69.574219 L 128.269531 67.777344 C 129.535156 69.210938 130.707031 70.726562 131.773438 72.324219 L 129.570312 73.59375 C 130.585938 75.105469 131.5 76.691406 132.308594 78.335938 L 134.515625 77.0625 C 135.363281 78.769531 136.101562 80.542969 136.71875 82.367188 L 134.246094 83.027344 C 134.832031 84.746094 135.3125 86.507812 135.664062 88.320312 L 138.144531 87.65625 C 138.515625 89.515625 138.761719 91.414062 138.886719 93.351562 L 136.320312 93.351562 C 136.378906 94.257812 136.421875 95.167969 136.421875 96.089844 C 136.421875 97.011719 136.378906 97.921875 136.320312 98.828125 L 138.886719 98.828125 C 138.761719 100.765625 138.515625 102.664062 138.144531 104.527344 Z M 96.082031 47.714844 C 69.40625 47.714844 47.707031 69.417969 47.707031 96.089844 C 47.707031 122.765625 69.40625 144.464844 96.082031 144.464844 C 122.757812 144.464844 144.457031 122.765625 144.457031 96.089844 C 144.457031 69.417969 122.757812 47.714844 96.082031 47.714844 " fill-opacity="1" fill-rule="nonzero"/></g><path fill="#040606" d="M 96.082031 132.152344 C 76.195312 132.152344 60.019531 115.972656 60.019531 96.089844 C 60.019531 76.207031 76.195312 60.027344 96.082031 60.027344 C 115.96875 60.027344 132.140625 76.207031 132.140625 96.089844 C 132.140625 115.972656 115.96875 132.152344 96.082031 132.152344 Z M 96.082031 58.203125 C 75.191406 58.203125 58.195312 75.199219 58.195312 96.089844 C 58.195312 116.980469 75.191406 133.976562 96.082031 133.976562 C 116.972656 133.976562 133.96875 116.980469 133.96875 96.089844 C 133.96875 75.199219 116.972656 58.203125 96.082031 58.203125 " fill-opacity="1" fill-rule="nonzero"/><path fill="#040606" d="M 100.128906 109.546875 L 90.566406 109.546875 L 90.566406 97.117188 L 100.128906 97.117188 C 103.554688 97.117188 106.34375 99.90625 106.34375 103.332031 C 106.34375 106.757812 103.554688 109.546875 100.128906 109.546875 Z M 90.566406 81.84375 L 98.230469 81.84375 C 101.105469 81.84375 103.445312 84.183594 103.445312 87.054688 C 103.445312 89.675781 101.507812 91.839844 98.988281 92.210938 L 90.566406 92.210938 Z M 105.078125 93.382812 C 106.617188 91.71875 107.5625 89.5 107.5625 87.054688 C 107.5625 82.363281 104.09375 78.488281 99.574219 77.832031 L 99.574219 71.902344 L 94.527344 71.902344 L 94.527344 77.726562 L 90.566406 77.726562 L 90.566406 71.902344 L 85.515625 71.902344 L 85.515625 77.726562 L 80.914062 77.726562 L 80.914062 81.84375 L 84.234375 81.84375 L 84.234375 109.546875 L 80.914062 109.546875 L 80.914062 114.457031 L 85.515625 114.457031 L 85.515625 120.277344 L 90.566406 120.277344 L 90.566406 114.457031 L 94.527344 114.457031 L 94.527344 120.277344 L 99.574219 120.277344 L 99.574219 114.457031 L 100.128906 114.457031 C 106.269531 114.457031 111.25 109.472656 111.25 103.332031 C 111.25 98.96875 108.734375 95.207031 105.078125 93.382812 " fill-opacity="1" fill-rule="nonzero"/></svg>