<svg xmlns="http://www.w3.org/2000/svg" xmlns:xlink="http://www.w3.org/1999/xlink" width="256" zoomAndPan="magnify" viewBox="0 0 192 191.999996" height="256" preserveAspectRatio="xMidYMid meet" version="1.0"><defs><filter x="0%" y="0%" width="100%" height="100%" id="178edef8c1"><feColorMatrix values="0 0 0 0 1 0 0 0 0 1 0 0 0 0 1 0 0 0 1 0" color-interpolation-filters="sRGB"/></filter><clipPath id="9722fd8d61"><path d="M 64.945312 77 L 126 77 L 126 110 L 64.945312 110 Z M 64.945312 77 " clip-rule="nonzero"/></clipPath><mask id="7c76b9a0b8"><g filter="url(#178edef8c1)"><rect x="-19.2" width="230.4" fill="#000000" y="-19.2" height="230.399995" fill-opacity="0.6"/></g></mask><clipPath id="a5ef3a2a55"><path d="M 0.945312 0.734375 L 61.304688 0.734375 L 61.304688 32.328125 L 0.945312 32.328125 Z M 0.945312 0.734375 " clip-rule="nonzero"/></clipPath><clipPath id="03ee8948bd"><rect x="0" width="62" y="0" height="33"/></clipPath><clipPath id="d7982bec4b"><path d="M 64.945312 41.035156 L 96 41.035156 L 96 110 L 64.945312 110 Z M 64.945312 41.035156 " clip-rule="nonzero"/></clipPath><mask id="3e3905a59a"><g filter="url(#178edef8c1)"><rect x="-19.2" width="230.4" fill="#000000" y="-19.2" height="230.399995" fill-opacity="0.4471"/></g></mask><clipPath id="c95968ca5e"><path d="M 0.945312 0.339844 L 31.109375 0.339844 L 31.109375 68.328125 L 0.945312 68.328125 Z M 0.945312 0.339844 " clip-rule="nonzero"/></clipPath><clipPath id="f851733609"><rect x="0" width="32" y="0" height="69"/></clipPath><clipPath id="94275ac61f"><path d="M 95 41.035156 L 126 41.035156 L 126 110 L 95 110 Z M 95 41.035156 " clip-rule="nonzero"/></clipPath><mask id="3f68a28ef6"><g filter="url(#178edef8c1)"><rect x="-19.2" width="230.4" fill="#000000" y="-19.2" height="230.399995" fill-opacity="0.8"/></g></mask><clipPath id="0d007115b6"><path d="M 0.109375 0.339844 L 30.316406 0.339844 L 30.316406 68.328125 L 0.109375 68.328125 Z M 0.109375 0.339844 " clip-rule="nonzero"/></clipPath><clipPath id="c6ffd10641"><rect x="0" width="31" y="0" height="69"/></clipPath><clipPath id="05e22f1f44"><path d="M 64.945312 96 L 96 96 L 96 140 L 64.945312 140 Z M 64.945312 96 " clip-rule="nonzero"/></clipPath><mask id="1af1934bc2"><g filter="url(#178edef8c1)"><rect x="-19.2" width="230.4" fill="#000000" y="-19.2" height="230.399995" fill-opacity="0.4471"/></g></mask><clipPath id="c26521d655"><path d="M 0.945312 1.199219 L 31.109375 1.199219 L 31.109375 43.769531 L 0.945312 43.769531 Z M 0.945312 1.199219 " clip-rule="nonzero"/></clipPath><clipPath id="9ff247b1b7"><rect x="0" width="32" y="0" height="44"/></clipPath><mask id="682550652c"><g filter="url(#178edef8c1)"><rect x="-19.2" width="230.4" fill="#000000" y="-19.2" height="230.399995" fill-opacity="0.8"/></g></mask><clipPath id="a4cd52cefc"><path d="M 0.109375 1.199219 L 30.328125 1.199219 L 30.328125 43.769531 L 0.109375 43.769531 Z M 0.109375 1.199219 " clip-rule="nonzero"/></clipPath><clipPath id="56373d5e3b"><rect x="0" width="31" y="0" height="44"/></clipPath></defs><g clip-path="url(#9722fd8d61)"><g mask="url(#7c76b9a0b8)"><g transform="matrix(1, 0, 0, 1, 64, 77)"><g clip-path="url(#03ee8948bd)"><g clip-path="url(#a5ef3a2a55)"><path fill="#010101" d="M 31.109375 0.734375 L 0.902344 14.476562 L 31.109375 32.328125 L 61.304688 14.476562 Z M 31.109375 0.734375 " fill-opacity="1" fill-rule="nonzero"/></g></g></g></g></g><g clip-path="url(#d7982bec4b)"><g mask="url(#3e3905a59a)"><g transform="matrix(1, 0, 0, 1, 64, 41)"><g clip-path="url(#f851733609)"><g clip-path="url(#c95968ca5e)"><path fill="#010101" d="M 0.902344 50.476562 L 31.109375 68.328125 L 31.109375 0.339844 Z M 0.902344 50.476562 " fill-opacity="1" fill-rule="nonzero"/></g></g></g></g></g><g clip-path="url(#94275ac61f)"><g mask="url(#3f68a28ef6)"><g transform="matrix(1, 0, 0, 1, 95, 41)"><g clip-path="url(#c6ffd10641)"><g clip-path="url(#0d007115b6)"><path fill="#010101" d="M 0.109375 0.339844 L 0.109375 68.328125 L 30.304688 50.476562 Z M 0.109375 0.339844 " fill-opacity="1" fill-rule="nonzero"/></g></g></g></g></g><g clip-path="url(#05e22f1f44)"><g mask="url(#1af1934bc2)"><g transform="matrix(1, 0, 0, 1, 64, 96)"><g clip-path="url(#9ff247b1b7)"><g clip-path="url(#c26521d655)"><path fill="#010101" d="M 0.902344 1.199219 L 31.109375 43.769531 L 31.109375 19.054688 Z M 0.902344 1.199219 " fill-opacity="1" fill-rule="nonzero"/></g></g></g></g></g><g mask="url(#682550652c)"><g transform="matrix(1, 0, 0, 1, 95, 96)"><g clip-path="url(#56373d5e3b)"><g clip-path="url(#a4cd52cefc)"><path fill="#010101" d="M 0.109375 19.054688 L 0.109375 43.769531 L 30.328125 1.199219 Z M 0.109375 19.054688 " fill-opacity="1" fill-rule="nonzero"/></g></g></g></g></svg>