<svg xmlns="http://www.w3.org/2000/svg" xmlns:xlink="http://www.w3.org/1999/xlink" width="256" zoomAndPan="magnify" viewBox="0 0 192 191.999996" height="256" preserveAspectRatio="xMidYMid meet" version="1.0"><defs><clipPath id="1ffc41f28c"><path d="M 55.039062 31.460938 L 136.789062 31.460938 L 136.789062 142.460938 L 55.039062 142.460938 Z M 55.039062 31.460938 " clip-rule="nonzero"/></clipPath></defs><g clip-path="url(#1ffc41f28c)"><path fill="#191919" d="M 129.351562 83.398438 L 129.351562 65.066406 C 129.351562 46.550781 114.34375 31.480469 95.90625 31.480469 C 77.46875 31.480469 62.460938 46.550781 62.460938 65.066406 L 62.460938 83.398438 C 58.292969 83.792969 55.039062 87.324219 55.039062 91.605469 L 55.039062 134.203125 C 55.039062 138.75 58.71875 142.441406 63.246094 142.441406 L 128.582031 142.441406 C 133.113281 142.441406 136.789062 138.75 136.789062 134.203125 L 136.789062 91.605469 C 136.773438 87.324219 133.519531 83.792969 129.351562 83.398438 Z M 82.503906 120.265625 C 84.25 119.953125 85.933594 119.234375 87.375 118.148438 C 87.421875 118.101562 87.503906 118.082031 87.570312 118.082031 C 87.699219 118.082031 87.832031 118.164062 87.878906 118.296875 L 87.878906 118.3125 C 87.929688 118.445312 87.878906 118.609375 87.765625 118.691406 C 86.246094 119.839844 84.449219 120.609375 82.601562 120.921875 C 82.566406 120.710938 82.535156 120.496094 82.503906 120.265625 Z M 82.863281 122.105469 C 85.363281 121.53125 88.796875 120.199219 91.132812 117.015625 C 91.6875 116.261719 92.164062 115.425781 92.539062 114.554688 C 92.636719 114.308594 92.867188 114.160156 93.128906 114.160156 L 93.160156 114.160156 C 93.421875 114.175781 93.652344 114.359375 93.730469 114.605469 C 94.566406 117.34375 95.9375 119.726562 97.800781 121.695312 C 98.046875 121.957031 98.308594 122.21875 98.585938 122.464844 C 98.652344 122.53125 98.703125 122.628906 98.683594 122.710938 C 98.683594 122.8125 98.636719 122.894531 98.554688 122.957031 C 98.503906 123.007812 98.421875 123.023438 98.359375 123.023438 C 98.277344 123.023438 98.195312 122.992188 98.144531 122.941406 C 97.867188 122.679688 97.589844 122.417969 97.328125 122.136719 C 95.449219 120.152344 94.058594 117.753906 93.191406 115.03125 L 93.128906 114.832031 L 93.046875 115.03125 C 92.667969 115.867188 92.210938 116.671875 91.671875 117.410156 C 89.238281 120.726562 85.65625 122.136719 83.074219 122.730469 C 82.992188 122.53125 82.925781 122.320312 82.863281 122.105469 Z M 99.925781 109.039062 C 99.960938 110.449219 100.238281 111.828125 100.746094 113.125 C 100.808594 113.289062 100.730469 113.472656 100.582031 113.535156 C 100.53125 113.554688 100.5 113.570312 100.449219 113.570312 C 100.320312 113.570312 100.207031 113.488281 100.15625 113.371094 C 99.601562 111.976562 99.304688 110.515625 99.289062 109.007812 L 99.289062 108.925781 C 99.257812 107.546875 98.375 106.347656 97.066406 105.902344 C 96.738281 105.789062 96.398438 105.738281 96.039062 105.738281 C 94.632812 105.738281 93.390625 106.644531 92.949219 107.972656 C 92.832031 108.300781 92.785156 108.628906 92.785156 108.972656 L 92.785156 109.007812 C 92.71875 112.175781 91.460938 115.179688 89.21875 117.445312 C 89.121094 117.542969 89.007812 117.65625 88.910156 117.753906 C 88.84375 117.820312 88.761719 117.855469 88.679688 117.855469 C 88.550781 117.855469 88.4375 117.789062 88.386719 117.65625 C 88.320312 117.527344 88.355469 117.378906 88.453125 117.277344 C 90.742188 115.113281 92.082031 112.074219 92.128906 108.972656 L 92.128906 108.90625 C 92.148438 108.515625 92.210938 108.136719 92.328125 107.777344 C 92.652344 106.773438 93.355469 105.96875 94.289062 105.511719 C 94.84375 105.230469 95.433594 105.082031 96.039062 105.082031 C 96.460938 105.082031 96.871094 105.148438 97.261719 105.28125 C 98.847656 105.804688 99.925781 107.28125 99.945312 108.957031 Z M 97.542969 108.957031 C 97.507812 108.332031 97.101562 107.792969 96.496094 107.59375 C 96.332031 107.546875 96.183594 107.511719 96.019531 107.511719 C 95.367188 107.511719 94.777344 107.941406 94.582031 108.5625 C 94.535156 108.710938 94.515625 108.859375 94.5 109.023438 C 94.566406 113.488281 96.234375 117.789062 98.964844 120.496094 C 99.863281 121.382812 101.136719 122.285156 102.675781 123.121094 C 102.820312 123.203125 102.886719 123.386719 102.820312 123.550781 C 102.773438 123.664062 102.65625 123.746094 102.527344 123.746094 C 102.476562 123.746094 102.414062 123.730469 102.363281 123.714844 C 100.777344 122.84375 99.453125 121.90625 98.503906 120.972656 C 95.660156 118.148438 93.914062 113.683594 93.847656 109.054688 L 93.847656 109.007812 C 93.847656 108.792969 93.894531 108.578125 93.960938 108.382812 C 94.253906 107.496094 95.089844 106.890625 96.019531 106.890625 C 96.25 106.890625 96.480469 106.921875 96.707031 107.003906 C 97.574219 107.28125 98.144531 108.070312 98.195312 108.972656 L 98.195312 109.054688 C 98.261719 112.796875 99.925781 116.359375 102.753906 118.839844 C 102.820312 118.902344 102.871094 118.984375 102.871094 119.085938 C 102.871094 119.183594 102.835938 119.265625 102.753906 119.332031 C 102.691406 119.378906 102.625 119.414062 102.542969 119.414062 C 102.460938 119.414062 102.378906 119.378906 102.332031 119.332031 C 102.101562 119.132812 101.890625 118.9375 101.691406 118.722656 C 99.09375 116.148438 97.640625 112.714844 97.558594 109.039062 Z M 83.566406 124.007812 C 85.933594 123.597656 88.257812 122.582031 90.101562 121.152344 C 90.773438 120.644531 91.214844 120.183594 91.574219 119.808594 C 92.046875 119.332031 92.359375 119.003906 92.75 119.003906 C 92.785156 119.003906 92.816406 119.003906 92.832031 119.003906 C 93.355469 119.070312 93.75 119.644531 94.566406 120.941406 C 95.957031 123.171875 98 125.042969 100.664062 126.472656 C 100.746094 126.519531 100.792969 126.585938 100.828125 126.683594 C 100.84375 126.78125 100.828125 126.863281 100.777344 126.945312 L 100.777344 126.964844 C 100.710938 127.046875 100.628906 127.09375 100.515625 127.09375 C 100.46875 127.09375 100.417969 127.078125 100.367188 127.0625 C 97.605469 125.570312 95.464844 123.632812 94.027344 121.300781 C 93.324219 120.152344 92.964844 119.691406 92.785156 119.675781 L 92.769531 119.675781 C 92.652344 119.675781 92.457031 119.855469 92.046875 120.28125 C 91.6875 120.644531 91.199219 121.136719 90.511719 121.679688 C 88.632812 123.140625 86.277344 124.191406 83.875 124.632812 C 83.761719 124.417969 83.664062 124.207031 83.566406 124.007812 Z M 89.140625 128.195312 C 89.105469 128.277344 89.039062 128.359375 88.960938 128.390625 C 88.5 128.589844 88.027344 128.769531 87.535156 128.933594 C 87.324219 128.769531 87.128906 128.605469 86.914062 128.441406 C 87.519531 128.261719 88.125 128.046875 88.679688 127.800781 C 88.714844 127.785156 88.761719 127.769531 88.8125 127.769531 C 88.925781 127.769531 89.023438 127.832031 89.089844 127.914062 C 89.15625 128.015625 89.171875 128.113281 89.140625 128.195312 Z M 93.40625 131.511719 C 92.832031 131.117188 92.292969 130.722656 91.785156 130.328125 C 91.722656 130.277344 91.640625 130.246094 91.558594 130.246094 C 91.527344 130.246094 91.476562 130.246094 91.445312 130.261719 C 91.117188 130.378906 90.757812 130.476562 90.363281 130.589844 C 90.070312 130.460938 89.761719 130.3125 89.464844 130.164062 C 89.597656 130.132812 89.726562 130.097656 89.839844 130.066406 C 90.429688 129.902344 91.019531 129.722656 91.589844 129.523438 C 91.625 129.507812 91.65625 129.507812 91.6875 129.507812 C 91.753906 129.507812 91.835938 129.539062 91.886719 129.574219 C 92.816406 130.328125 93.8125 131.050781 94.84375 131.691406 C 94.386719 131.65625 93.894531 131.59375 93.40625 131.511719 Z M 98.816406 131.429688 C 97.671875 130.855469 96.578125 130.195312 95.53125 129.476562 C 94.386719 128.6875 93.289062 127.785156 92.277344 126.816406 C 92.179688 126.734375 92.066406 126.683594 91.949219 126.683594 C 91.851562 126.683594 91.769531 126.71875 91.6875 126.765625 L 90.265625 127.703125 C 90.21875 127.734375 90.152344 127.75 90.085938 127.75 C 89.957031 127.75 89.839844 127.667969 89.792969 127.554688 C 89.726562 127.40625 89.777344 127.242188 89.90625 127.160156 L 91.820312 125.863281 C 91.886719 125.816406 91.949219 125.78125 92.03125 125.78125 C 92.113281 125.78125 92.195312 125.816406 92.261719 125.878906 C 93.390625 127.011719 94.613281 128.03125 95.921875 128.933594 C 97.148438 129.785156 98.457031 130.542969 99.8125 131.164062 C 99.46875 131.28125 99.144531 131.363281 98.816406 131.429688 Z M 101.757812 130.445312 C 98.945312 129.3125 96.542969 127.6875 94.597656 125.601562 C 94.011719 124.976562 93.601562 124.4375 93.273438 124.027344 C 92.847656 123.484375 92.570312 123.140625 92.34375 123.105469 C 92.328125 123.105469 92.328125 123.105469 92.308594 123.105469 C 91.933594 123.105469 91.183594 123.746094 90.121094 124.632812 C 88.699219 125.832031 87.226562 126.554688 85.445312 126.929688 C 85.28125 126.75 85.132812 126.554688 84.988281 126.355469 C 86.800781 126.027344 88.304688 125.320312 89.695312 124.125 C 91.066406 122.957031 91.707031 122.449219 92.292969 122.449219 C 92.328125 122.449219 92.359375 122.449219 92.390625 122.449219 C 92.898438 122.5 93.226562 122.925781 93.765625 123.613281 C 94.09375 124.027344 94.484375 124.535156 95.054688 125.15625 C 97.050781 127.308594 99.566406 128.949219 102.527344 130.050781 C 102.28125 130.195312 102.019531 130.328125 101.757812 130.445312 Z M 104.472656 128.785156 C 103.492188 128.457031 102.542969 128.097656 101.660156 127.6875 C 101.578125 127.652344 101.511719 127.570312 101.480469 127.488281 C 101.449219 127.390625 101.464844 127.308594 101.511719 127.226562 C 101.578125 127.128906 101.675781 127.078125 101.773438 127.078125 C 101.824219 127.078125 101.855469 127.09375 101.90625 127.109375 C 102.886719 127.554688 103.933594 127.964844 105.027344 128.308594 C 104.863281 128.457031 104.667969 128.621094 104.472656 128.785156 Z M 106.007812 127.359375 C 104.0625 126.734375 101.53125 125.765625 99.078125 123.777344 C 98.996094 123.714844 98.964844 123.613281 98.964844 123.515625 C 98.964844 123.417969 99.011719 123.320312 99.09375 123.253906 C 99.144531 123.222656 99.207031 123.1875 99.273438 123.1875 C 99.339844 123.1875 99.421875 123.222656 99.46875 123.253906 C 101.871094 125.191406 104.339844 126.144531 106.464844 126.800781 C 106.320312 126.996094 106.171875 127.175781 106.007812 127.359375 Z M 107.265625 125.75 C 106.007812 125.371094 104.75 124.894531 103.523438 124.289062 C 103.359375 124.207031 103.296875 124.027344 103.375 123.859375 C 103.425781 123.746094 103.539062 123.679688 103.671875 123.679688 C 103.71875 123.679688 103.769531 123.695312 103.816406 123.714844 C 105.0625 124.320312 106.382812 124.8125 107.644531 125.191406 C 107.511719 125.371094 107.382812 125.570312 107.265625 125.75 Z M 108.199219 124.109375 C 104.699219 123.269531 101.921875 121.726562 99.945312 119.527344 C 97.460938 116.753906 96.332031 113.175781 96.296875 113.027344 C 95.988281 111.992188 95.757812 110.925781 95.628906 109.859375 C 95.613281 109.761719 95.644531 109.679688 95.695312 109.613281 C 95.742188 109.546875 95.824219 109.5 95.921875 109.5 C 95.9375 109.5 95.9375 109.5 95.957031 109.5 C 96.117188 109.5 96.25 109.628906 96.28125 109.777344 C 96.398438 110.8125 96.609375 111.847656 96.917969 112.847656 C 96.9375 112.878906 98.046875 116.441406 100.433594 119.117188 C 102.347656 121.25 105.0625 122.746094 108.460938 123.53125 C 108.378906 123.714844 108.28125 123.910156 108.199219 124.109375 Z M 108.820312 122.515625 C 106.824219 122.136719 104.960938 121.332031 103.3125 120.136719 C 103.230469 120.085938 103.179688 119.988281 103.179688 119.890625 C 103.179688 119.789062 103.214844 119.691406 103.277344 119.625 C 103.34375 119.5625 103.425781 119.527344 103.507812 119.527344 C 103.574219 119.527344 103.636719 119.542969 103.703125 119.59375 C 105.273438 120.742188 107.105469 121.53125 109 121.890625 C 108.949219 122.089844 108.886719 122.300781 108.820312 122.515625 Z M 109.230469 120.839844 C 106.792969 120.382812 104.585938 119.214844 102.835938 117.445312 C 102.003906 116.605469 101.300781 115.636719 100.730469 114.605469 C 100.648438 114.457031 100.695312 114.257812 100.859375 114.175781 C 100.910156 114.144531 100.957031 114.128906 101.023438 114.128906 C 101.136719 114.128906 101.234375 114.191406 101.300781 114.292969 C 102.953125 117.394531 105.878906 119.542969 109.34375 120.183594 C 109.292969 120.414062 109.261719 120.628906 109.230469 120.839844 Z M 109.410156 118.691406 C 109.410156 118.789062 109.410156 118.886719 109.410156 118.984375 C 107.085938 118.542969 104.960938 117.3125 103.425781 115.507812 C 101.839844 113.667969 100.941406 111.304688 100.875 108.875 L 100.875 108.792969 C 100.792969 106.527344 99.125 104.589844 96.902344 104.179688 C 96.609375 104.132812 96.316406 104.097656 96.019531 104.097656 C 93.683594 104.097656 91.671875 105.773438 91.246094 108.085938 C 91.199219 108.367188 91.164062 108.628906 91.164062 108.90625 L 91.164062 108.972656 C 91.019531 113.996094 87.339844 118.230469 82.421875 119.070312 C 82.421875 118.921875 82.421875 118.804688 82.421875 118.691406 L 82.421875 118.410156 C 87.03125 117.574219 90.429688 113.585938 90.527344 108.890625 L 90.527344 108.824219 C 90.542969 108.546875 90.5625 108.25 90.609375 107.988281 C 91.085938 105.363281 93.371094 103.457031 96.019531 103.457031 C 96.347656 103.457031 96.691406 103.492188 97.019531 103.558594 C 99.535156 104.015625 101.429688 106.214844 101.511719 108.792969 L 101.511719 108.875 C 101.628906 113.472656 104.929688 117.425781 109.410156 118.347656 Z M 92.410156 96.171875 C 86.734375 97.777344 82.78125 103.03125 82.761719 108.941406 L 82.761719 108.988281 C 82.730469 109.382812 82.617188 109.746094 82.421875 110.058594 L 82.421875 106.789062 C 82.421875 106.296875 82.484375 105.804688 82.617188 105.347656 C 83.890625 100.636719 87.585938 96.894531 92.261719 95.5625 C 92.292969 95.5625 92.328125 95.546875 92.34375 95.546875 C 92.507812 95.546875 92.636719 95.679688 92.652344 95.84375 C 92.652344 95.988281 92.554688 96.136719 92.410156 96.171875 Z M 103.179688 108.988281 C 103.230469 110.8125 103.917969 112.601562 105.109375 114.027344 C 105.222656 114.175781 105.207031 114.375 105.078125 114.488281 C 105.011719 114.539062 104.945312 114.570312 104.863281 114.570312 C 104.765625 114.570312 104.667969 114.523438 104.601562 114.457031 C 103.328125 112.929688 102.59375 110.992188 102.542969 108.988281 L 102.542969 108.90625 C 102.511719 105.609375 100.027344 102.851562 96.757812 102.488281 C 96.511719 102.457031 96.265625 102.457031 96.019531 102.457031 C 94.535156 102.457031 93.128906 102.949219 91.96875 103.902344 C 91.394531 104.359375 90.921875 104.886719 90.527344 105.492188 C 90.464844 105.59375 90.363281 105.640625 90.25 105.640625 C 90.183594 105.640625 90.136719 105.625 90.085938 105.59375 C 89.941406 105.492188 89.890625 105.296875 89.988281 105.148438 C 90.414062 104.476562 90.9375 103.886719 91.558594 103.394531 C 92.847656 102.359375 94.386719 101.816406 96.019531 101.816406 C 96.28125 101.816406 96.558594 101.832031 96.820312 101.867188 C 100.417969 102.261719 103.164062 105.296875 103.195312 108.925781 Z M 99.585938 101.191406 C 99.535156 101.324219 99.421875 101.421875 99.273438 101.421875 C 99.226562 101.421875 99.191406 101.421875 99.144531 101.40625 C 98.324219 101.0625 97.441406 100.863281 96.558594 100.800781 C 96.378906 100.78125 96.199219 100.78125 96.019531 100.78125 C 91.722656 100.78125 88.140625 104.148438 87.863281 108.449219 C 87.847656 108.613281 87.847656 108.777344 87.847656 108.925781 L 87.847656 108.988281 C 87.816406 110.417969 87.375 111.796875 86.554688 112.960938 C 86.492188 113.042969 86.394531 113.09375 86.292969 113.09375 C 86.195312 113.09375 86.097656 113.042969 86.03125 112.960938 C 85.953125 112.847656 85.953125 112.699219 86.03125 112.585938 C 86.785156 111.5 87.195312 110.222656 87.210938 108.890625 L 87.210938 108.824219 C 87.210938 108.660156 87.226562 108.53125 87.226562 108.398438 C 87.535156 103.753906 91.394531 100.109375 96.039062 100.109375 C 96.234375 100.109375 96.429688 100.109375 96.625 100.125 C 97.589844 100.191406 98.539062 100.40625 99.421875 100.78125 C 99.550781 100.863281 99.632812 101.027344 99.585938 101.191406 Z M 86.457031 105.773438 C 86.410156 105.773438 86.359375 105.757812 86.328125 105.738281 L 86.3125 105.738281 C 86.164062 105.675781 86.082031 105.492188 86.148438 105.347656 C 87.390625 101.980469 90.332031 99.421875 93.832031 98.664062 C 93.847656 98.664062 93.878906 98.664062 93.894531 98.664062 C 93.976562 98.664062 94.058594 98.699219 94.125 98.765625 C 94.191406 98.828125 94.222656 98.910156 94.222656 98.992188 C 94.222656 99.140625 94.109375 99.273438 93.960938 99.304688 C 90.675781 100.011719 87.914062 102.40625 86.753906 105.574219 C 86.703125 105.691406 86.589844 105.773438 86.457031 105.773438 Z M 96.378906 99.09375 C 96.265625 99.09375 96.136719 99.09375 96.019531 99.09375 C 95.808594 99.09375 95.578125 99.09375 95.367188 99.109375 C 95.367188 99.109375 95.351562 99.109375 95.351562 99.109375 C 95.1875 99.109375 95.054688 98.992188 95.039062 98.847656 C 95.023438 98.746094 95.039062 98.648438 95.105469 98.582031 C 95.171875 98.519531 95.234375 98.46875 95.335938 98.46875 C 95.5625 98.453125 95.792969 98.453125 96.019531 98.453125 C 96.152344 98.453125 96.28125 98.453125 96.414062 98.453125 C 99.160156 98.550781 101.710938 99.699219 103.605469 101.6875 C 105.109375 103.261719 106.074219 105.214844 106.417969 107.363281 C 106.433594 107.527344 106.351562 107.675781 106.203125 107.726562 C 106.171875 107.742188 106.140625 107.742188 106.105469 107.742188 C 105.941406 107.742188 105.8125 107.628906 105.796875 107.464844 C 105.0625 102.769531 101.105469 99.257812 96.378906 99.09375 Z M 104.929688 101.109375 C 104.863281 101.160156 104.78125 101.191406 104.71875 101.191406 C 104.621094 101.191406 104.539062 101.160156 104.472656 101.078125 C 102.332031 98.765625 99.324219 97.417969 96.21875 97.367188 C 96.152344 97.367188 96.085938 97.367188 96.019531 97.367188 C 93.960938 97.367188 91.933594 97.925781 90.167969 98.960938 C 90.121094 98.992188 90.070312 99.011719 90.003906 99.011719 C 89.890625 99.011719 89.777344 98.945312 89.726562 98.847656 C 89.644531 98.699219 89.695312 98.5 89.839844 98.402344 C 91.707031 97.304688 93.847656 96.710938 96.019531 96.710938 C 96.085938 96.710938 96.152344 96.710938 96.21875 96.710938 C 99.421875 96.761719 102.445312 98.058594 104.699219 100.339844 C 104.78125 100.421875 104.878906 100.519531 104.960938 100.617188 C 105.027344 100.683594 105.0625 100.78125 105.0625 100.863281 C 105.027344 100.980469 104.996094 101.0625 104.929688 101.109375 Z M 83.808594 108.90625 L 83.808594 108.792969 C 83.859375 105.511719 85.183594 102.457031 87.519531 100.175781 C 87.832031 99.878906 88.15625 99.585938 88.5 99.320312 C 88.550781 99.273438 88.632812 99.257812 88.699219 99.257812 C 88.828125 99.257812 88.941406 99.339844 88.992188 99.453125 C 89.039062 99.585938 89.007812 99.75 88.894531 99.832031 C 88.566406 100.078125 88.257812 100.355469 87.976562 100.636719 C 85.753906 102.785156 84.511719 105.691406 84.464844 108.792969 L 84.464844 108.972656 C 84.414062 110.367188 83.628906 111.617188 82.421875 112.273438 L 82.421875 111.5 C 83.253906 110.910156 83.777344 109.957031 83.808594 108.90625 Z M 85.492188 108.90625 L 85.492188 108.777344 C 85.492188 108.726562 85.492188 108.660156 85.492188 108.613281 C 85.511719 107.988281 85.589844 107.363281 85.722656 106.757812 C 85.753906 106.609375 85.886719 106.511719 86.03125 106.511719 C 86.082031 106.511719 86.113281 106.527344 86.164062 106.542969 C 86.3125 106.609375 86.375 106.757812 86.359375 106.90625 C 86.230469 107.480469 86.164062 108.054688 86.148438 108.644531 C 86.148438 108.742188 86.148438 108.859375 86.148438 108.957031 L 86.148438 109.007812 C 86.082031 111.320312 84.578125 113.339844 82.402344 114.078125 L 82.402344 113.390625 C 84.234375 112.667969 85.460938 110.878906 85.492188 108.90625 Z M 85.003906 113.71875 C 85.070312 113.667969 85.132812 113.636719 85.214844 113.636719 C 85.3125 113.636719 85.410156 113.683594 85.460938 113.75 C 85.558594 113.882812 85.558594 114.078125 85.429688 114.191406 C 84.5625 114.964844 83.515625 115.523438 82.386719 115.800781 L 82.386719 115.128906 C 83.367188 114.867188 84.265625 114.375 85.003906 113.71875 Z M 88.859375 109.039062 L 88.859375 108.957031 C 88.859375 108.695312 88.878906 108.449219 88.910156 108.203125 C 88.976562 107.609375 89.105469 107.035156 89.320312 106.496094 C 89.367188 106.363281 89.480469 106.28125 89.613281 106.28125 C 89.660156 106.28125 89.726562 106.296875 89.777344 106.332031 C 89.90625 106.414062 89.957031 106.578125 89.90625 106.726562 C 89.726562 107.21875 89.597656 107.742188 89.546875 108.285156 C 89.515625 108.496094 89.515625 108.726562 89.515625 108.957031 L 89.515625 109.007812 C 89.464844 111.207031 88.617188 113.308594 87.09375 114.914062 C 85.835938 116.246094 84.21875 117.148438 82.421875 117.507812 L 82.421875 116.835938 C 86.050781 116.03125 88.746094 112.765625 88.859375 109.039062 Z M 109.410156 117.410156 C 107.9375 117.082031 106.566406 116.375 105.453125 115.359375 C 105.386719 115.292969 105.339844 115.195312 105.339844 115.097656 C 105.339844 114.996094 105.386719 114.898438 105.453125 114.851562 C 105.519531 114.800781 105.582031 114.769531 105.664062 114.769531 C 105.746094 114.769531 105.828125 114.800781 105.894531 114.851562 C 106.890625 115.753906 108.117188 116.410156 109.410156 116.722656 Z M 109.410156 115.703125 C 107.953125 115.292969 106.695312 114.457031 105.746094 113.257812 C 104.765625 112.027344 104.242188 110.550781 104.195312 108.972656 L 104.195312 108.890625 C 104.160156 106.085938 102.65625 103.425781 100.253906 101.949219 C 100.109375 101.851562 100.058594 101.667969 100.140625 101.523438 C 100.1875 101.421875 100.304688 101.359375 100.417969 101.359375 C 100.46875 101.359375 100.53125 101.375 100.582031 101.40625 C 103.179688 103 104.765625 105.757812 104.832031 108.792969 L 104.832031 108.875 C 104.863281 111.730469 106.679688 114.191406 109.390625 115.03125 L 109.390625 115.703125 Z M 109.410156 113.945312 C 107.347656 113.144531 105.960938 111.222656 105.894531 108.988281 L 105.878906 108.695312 C 105.878906 108.53125 105.992188 108.382812 106.15625 108.367188 C 106.171875 108.367188 106.1875 108.367188 106.203125 108.367188 C 106.382812 108.367188 106.515625 108.515625 106.53125 108.679688 C 106.53125 108.726562 106.53125 108.761719 106.53125 108.808594 L 106.53125 108.890625 C 106.566406 110.777344 107.675781 112.484375 109.410156 113.257812 Z M 109.410156 112.109375 C 108.296875 111.402344 107.609375 110.222656 107.578125 108.890625 L 107.578125 108.808594 C 107.546875 106.398438 106.761719 104.082031 105.304688 102.128906 C 105.207031 101.996094 105.222656 101.800781 105.339844 101.6875 C 105.402344 101.621094 105.484375 101.585938 105.566406 101.585938 C 105.683594 101.585938 105.78125 101.636719 105.84375 101.71875 C 107.367188 103.769531 108.183594 106.214844 108.214844 108.792969 L 108.214844 108.875 C 108.230469 109.828125 108.671875 110.695312 109.390625 111.304688 L 109.390625 112.109375 Z M 109.410156 109.566406 C 109.34375 109.382812 109.292969 109.1875 109.277344 108.972656 L 109.277344 108.90625 C 109.230469 101.605469 103.296875 95.679688 96.019531 95.679688 C 95.1875 95.679688 94.351562 95.761719 93.535156 95.90625 C 93.519531 95.90625 93.503906 95.90625 93.472656 95.90625 C 93.308594 95.90625 93.175781 95.792969 93.160156 95.628906 C 93.144531 95.464844 93.257812 95.300781 93.421875 95.269531 C 94.273438 95.105469 95.15625 95.023438 96.019531 95.023438 C 98.636719 95.023438 101.171875 95.761719 103.375 97.140625 C 105.519531 98.484375 107.265625 100.390625 108.410156 102.652344 C 109.066406 103.933594 109.410156 105.363281 109.410156 106.773438 Z M 119.054688 83.367188 L 72.757812 83.367188 L 72.757812 65.066406 C 72.757812 52.246094 83.140625 41.824219 95.90625 41.824219 C 108.671875 41.824219 119.054688 52.246094 119.054688 65.066406 Z M 119.054688 83.367188 " fill-opacity="1" fill-rule="nonzero"/></g></svg>